<svg version="1.0" xmlns="http://www.w3.org/2000/svg"
 width="104.000000pt" height="142.000000pt" viewBox="0 0 104.000000 142.000000"
 preserveAspectRatio="xMidYMid meet">

<g transform="translate(0.000000,142.000000) scale(0.100000,-0.100000)"
fill="#000000" stroke="none">
<path d="M0 710 l0 -710 520 0 520 0 0 710 0 710 -520 0 -520 0 0 -710z m392
121 c123 -240 143 -272 154 -256 7 9 72 134 145 276 l132 259 58 0 59 0 0
-406 0 -405 -47 3 -48 3 -5 310 -5 310 -130 -253 -130 -252 -39 2 -39 3 -131
251 -131 251 -3 -314 -2 -314 -48 3 -47 3 -3 403 -2 403 61 -3 61 -3 140 -274z"/>
</g>
</svg>